<?xml version="1.0" encoding="UTF-8"?>
<svg id="_レイヤー_2" data-name="レイヤー 2" xmlns="http://www.w3.org/2000/svg" viewBox="0 0 23.42 17.04">
  <defs>
    <style>
      .cls-1 {
        fill: #fff;
        stroke-width: 0px;
      }
    </style>
  </defs>
  <g id="_レイヤー_1-2" data-name="レイヤー 1">
    <g>
      <path class="cls-1" d="M21.41,17.04H2.01c-1.11,0-2.01-.9-2.01-2.01V2.01C0,.9.9,0,2.01,0h19.4c1.11,0,2.01.9,2.01,2.01v13.03c0,1.11-.9,2.01-2.01,2.01ZM2.01.5c-.83,0-1.51.68-1.51,1.51v13.03c0,.83.68,1.51,1.51,1.51h19.4c.83,0,1.51-.68,1.51-1.51V2.01c0-.83-.68-1.51-1.51-1.51H2.01Z"/>
      <path class="cls-1" d="M11.71,9.95c-.05,0-.11-.02-.15-.05l-7.5-5.79c-.11-.08-.13-.24-.05-.35.09-.11.24-.13.35-.04l7.35,5.67,7.35-5.67c.11-.08.26-.07.35.04.08.11.06.27-.05.35l-7.5,5.79s-.1.05-.15.05Z"/>
    </g>
  </g>
</svg>